<svg xmlns="http://www.w3.org/2000/svg" viewBox="0 0 255.42 189"><defs><style>.cls-1{fill:#f7e826;}.cls-2{fill:#e3061f;}</style></defs><g id="Camada_2" data-name="Camada 2"><g id="Camada_1-2" data-name="Camada 1"><path class="cls-1" d="M132,140.93a116.2,116.2,0,0,1-7.74,12.66,108.19,108.19,0,0,1-6.64,8.56A113.05,113.05,0,0,1,106,145.73q8.74-2.39,18-5.35l1.62-.53C127.72,140.1,129.87,140.47,132,140.93Z"/><path class="cls-1" d="M145.59,132.76a353.72,353.72,0,0,0,37.84-17A69.41,69.41,0,0,1,164.1,145.9a77.53,77.53,0,0,0-19.51-10.63C144.94,134.43,145.27,133.59,145.59,132.76Z"/><path class="cls-1" d="M133.25,162.25l1.23-.3.06,0c.41-.1.81-.21,1.22-.33.8-.22,1.6-.46,2.39-.71.45-.14.89-.28,1.32-.44l.74-.25c1-.34,1.95-.71,2.91-1.1.4-.15.8-.32,1.2-.49l1.19-.52c.4-.17.79-.35,1.18-.54,1.95-.91,3.87-1.92,5.74-3,1-.59,2-1.21,3-1.86l.31-.21c.37-.23.73-.48,1.08-.73a69.2,69.2,0,0,0-16-8.26,126.48,126.48,0,0,1-12.49,19.77c1.22-.2,2.44-.43,3.64-.7C132.4,162.45,132.83,162.36,133.25,162.25Z"/><path class="cls-1" d="M107.08,163.43h0A70.45,70.45,0,0,1,99.71,162l-1.09-.3q-.63-.16-1.26-.36c-.42-.12-.84-.24-1.25-.38-.83-.26-1.66-.54-2.48-.83s-1.64-.6-2.44-.93c-.33-.12-.65-.25-1-.39-1-.4-1.92-.83-2.86-1.27-.69-.32-1.37-.65-2-1q-3-1.53-5.81-3.33l-1.05-.69-.58-.39q9.21-1.62,19-4A125.64,125.64,0,0,0,107.08,163.43Z"/><path class="cls-1" d="M201.93,105.09a85.46,85.46,0,0,1-145.31,49.8q-6,.5-11.64.62A94.46,94.46,0,0,0,211.5,98.58C208.5,100.77,205.3,103,201.93,105.09Z"/><path class="cls-2" d="M157.25,37.58c-.42-.3-.85-.59-1.28-.88-.79-.54-1.6-1.06-2.42-1.56a1.18,1.18,0,0,0-.19-.11c-.88-.54-1.77-1.06-2.67-1.55-1.36-.75-2.73-1.45-4.13-2.1l-1.4-.64-1.08-.46q-.89-.37-1.77-.72-.72-.28-1.44-.54c-.49-.18-1-.35-1.46-.51s-1-.33-1.47-.48l-1-.3q-.53-.16-1.05-.3c-.44-.13-.89-.25-1.33-.36s-.89-.23-1.34-.33c-.89-.22-1.79-.42-2.7-.59l-.08,0c-.88-.17-1.76-.33-2.65-.46h-.08a124.1,124.1,0,0,1,14.33,23h0a68.06,68.06,0,0,0,17.2-9.6C158.6,38.55,157.93,38.06,157.25,37.58Z"/><path class="cls-2" d="M107.65,25.48l-.86.13-1.05.16c-1.4.23-2.79.5-4.17.82-.46.1-.92.21-1.37.33s-.93.23-1.39.36-.79.21-1.18.33l-.3.09L96.4,28c-.87.27-1.73.56-2.59.86q-.74.26-1.47.54c-.9.34-1.78.7-2.66,1.08-.66.28-1.32.57-2,.88-.38.18-.76.35-1.13.54l-.95.47L84.45,33l-.85.46-1.2.67a66.92,66.92,0,0,0-7.48,5A69.4,69.4,0,0,0,93,49h0a124.15,124.15,0,0,1,14.63-23.52h0Z"/><path class="cls-2" d="M101.88,51.6a69,69,0,0,0,15.21,1.68,69.51,69.51,0,0,0,16.18-1.9A117.52,117.52,0,0,0,117.62,27.6,118.38,118.38,0,0,0,101.88,51.6Z"/><path class="cls-2" d="M143.51,99a87.24,87.24,0,0,1-1.67,14.74,93.59,93.59,0,0,1-3.24,11.94s0,0,0,0q-6.87,2.58-14,5l-.28,0a79.82,79.82,0,0,0-25.09,1.7q-.92-2.16-1.7-4.33a90.43,90.43,0,0,1-5.77-29Z"/><path class="cls-2" d="M117.09,62.28A78.38,78.38,0,0,1,98.18,60a92,92,0,0,0-6.41,30h51.71A91.92,91.92,0,0,0,137,59.74,78.89,78.89,0,0,1,117.09,62.28Z"/><path class="cls-2" d="M90.52,134.92a77.56,77.56,0,0,0-16.64,8.33l-.36.23c-1.74.28-3.47.54-5.18.76l-.12-.11A69.46,69.46,0,0,1,47.58,99H82.74a96.21,96.21,0,0,0,2.18,18,104,104,0,0,0,3.77,13.11Q89.55,132.54,90.52,134.92Z"/><path class="cls-2" d="M186.6,90a69.67,69.67,0,0,0-20.42-44.91,77.57,77.57,0,0,1-20.54,11.84h0A101.27,101.27,0,0,1,152.48,90Z"/><path class="cls-2" d="M47.58,90H82.77a100.72,100.72,0,0,1,6.72-32.71h0A78.71,78.71,0,0,1,68,45.08,69.73,69.73,0,0,0,47.58,90Z"/><path class="cls-2" d="M186.6,99c-.1,1.58-.25,3.15-.46,4.71a322.15,322.15,0,0,1-36.89,17.82,96,96,0,0,0,2.39-11.8A94.44,94.44,0,0,0,152.52,99Z"/><path class="cls-2" d="M209.62,75.24a94.5,94.5,0,0,0-187,18.51c0,.25,0,.5,0,.75A93.68,93.68,0,0,0,38,146.11c3.54.09,7.18,0,10.93-.1a85.48,85.48,0,1,1,152.76-64.1,84,84,0,0,1,.92,11.52q4.65-3.21,8.71-6.45A94.26,94.26,0,0,0,209.62,75.24Z"/><path class="cls-2" d="M221.75,43.51l-.44.68-2.91,7.9c-.15.34-.28.67-.39,1-4.27-3.63-13.64-5.81-26.38-6l.14-10C206.72,37.28,216,40,221.75,43.51Z"/><path class="cls-2" d="M253.07,62.51l-2.28,1.64-4.27,3.29L238.9,71c-2.86,1.6-4.41.92-4.41.92a14.33,14.33,0,0,1-5.07,1.31c-3.69.47-4.23,1.22-4.23,1.22l-3,2.15a79.84,79.84,0,0,1-8.6,8.54h0q-1.08.93-2.25,1.89a.08.08,0,0,0,0-.07q-4,3.24-8.71,6.45c-5,3.46-10.51,6.9-16.44,10.28a322.15,322.15,0,0,1-36.89,17.82,0,0,0,0,0,0,0h0l-2.23.89-.3.12q-4,1.59-8.12,3.12-5.19,1.92-10.54,3.73l-3.76,1.25a350.89,350.89,0,0,1-50.42,12.59c-1.91.31-3.79.61-5.66.88-4,.59-8,1.06-11.79,1.41-2.56.21-5.07.36-7.53.47-3.75.15-7.39.19-10.93.1q-6.66-.13-12.8-.85c-13.38-2-21.69-7.08-24.32-14.86-3.52-10.41,4-23,21.75-36.65,1-.75,2-1.49,3-2.24l5.88,8.08q-4.66,3.39-8.18,6.48c-11.3,9.85-14.3,17.2-13,21.13C11.6,131,18.08,134.89,32.2,136c2.55.2,5.35.31,8.41.31h1.92a178.39,178.39,0,0,0,17.93-1.24,269.23,269.23,0,0,0,28.23-4.93c2.91-.65,5.85-1.36,8.82-2.11,9-2.28,18.16-5,27.35-8.1,5.79-2,11.47-4,17-6.19q5-2,9.8-4c8-3.42,15.63-7,22.67-10.73a195.62,195.62,0,0,0,27.35-17.09c1-.8,2.05-1.59,3-2.39,1.78-1.45,3.43-2.88,4.93-4.28a63.4,63.4,0,0,0,4.9-5.08l0,0,.44-.54,2.11-2.6s.71-.6.87-4.31a14.3,14.3,0,0,1,.87-5.17s-.8-1.48.55-4.47l2.91-7.9,2.92-4.52,1.44-2.41s1.1-2.72,2.5-2.56l.78.15a2,2,0,0,1,1.22.19s.66.42.89.36a1.85,1.85,0,0,1,1.39.57s1.59,0,1.44,1a13.74,13.74,0,0,1-.71,2.42s-.25,1-.94.77l-.14.85s0,.43-1,0a5.36,5.36,0,0,1-2.45-.62S228,48,226.32,49.54c0,0,.86,3.68-.42,6.34,0,0,1,3.37.4,4.24l.66-.66s-.45-.64.49-1.6c0,0,.18-.07.43.16l.75-.76.09-.09,1.08-1.11s1.7-1.47,2.63-1.41c0,0-.05.18.28.58.14.17.81.66,1.48,1.32a0,0,0,0,0,0,0c1,.95,1.93,2.22,1.33,3.32a13,13,0,0,1-1.48,2.19l-.09.1-.69.81c.25.23.2.41.2.41-.88,1-1.56.62-1.56.62l-.59.71c.81-.69,4.26,0,4.26,0,2.53-1.5,6.27-.95,6.27-.95,1.4-1.84,7.9-4,7.9-4a5.53,5.53,0,0,1-.82-2.4c-.53-1-.1-1-.1-1l.83-.21c-.32-.67.69-1,.69-1a14,14,0,0,1,2.35-.92c1-.23,1.07,1.36,1.07,1.36a1.82,1.82,0,0,1,.69,1.33c0,.24.43.86.43.86a2,2,0,0,1,.3,1.2l.21.76C255.68,61.18,253.07,62.51,253.07,62.51Z"/><path class="cls-2" d="M230.1,54.12a10.26,10.26,0,0,0-1.3.94l-1.08,1.11-.09.09-.28.28c-.1-.37-.17-.61-.17-.61,1.28-2.66.42-6.34.42-6.34a2.62,2.62,0,0,0,.31-.34A15.94,15.94,0,0,1,229.77,53C229.89,53.36,230,53.73,230.1,54.12Z"/></g></g></svg>