<svg xmlns="http://www.w3.org/2000/svg" viewBox="0 0 356.92 157.39"><defs><style>.cls-1{fill:#e3061f;}.cls-2{fill:#f7e826;}</style></defs><g id="Camada_2" data-name="Camada 2"><g id="Camada_1-2" data-name="Camada 1"><path class="cls-1" d="M59.33,115.17H42V63.51H18.63v51.66H1.41V0H18.63V47.47H42V0H59.33Z"/><path class="cls-1" d="M120.19,106q0,9.19-9.5,9.2H81.63q-9.5,0-9.5-9.2V50q0-9.19,9.5-9.2h29.06q9.5,0,9.5,9.2v27.3L115.55,82H88.25V102.8h15.82V90.44h16.12ZM104.07,71V53.21H88.25V71Z"/><path class="cls-1" d="M179.28,71.9H162.57v-17l-13.32.29v60H132.4V40.84h16.85v2.73l10.38-1.92a62.62,62.62,0,0,1,10.45-1.1q9.19,0,9.2,9.05Z"/><path class="cls-1" d="M237.78,106q0,9.19-9.34,9.2H198.26q-9.48,0-9.49-9.2V50q0-9.19,9.49-9.2h30.18q9.34,0,9.34,9.2Zm-16.48-4.78V54.9h-16v46.29Z"/><path class="cls-1" d="M298,106q0,9.19-9.49,9.2H259.42q-9.5,0-9.5-9.2V50q0-9.19,9.5-9.2h29.07q9.48,0,9.49,9.2v27.3L293.34,82H266V102.8h15.82V90.44H298ZM281.86,71V53.21H266V71Z"/><path class="cls-1" d="M356.92,106q0,9.19-9.34,9.2H319.25q-9.35,0-9.35-9.2V90H326v12.51h14.79V90.74L315,75.5q-5.09-3-5.08-8.09V50q0-9.19,9.49-9.2h28q9.35,0,9.35,9.2V65h-16V53.5H326V64.24l25.75,15.09q5.16,2.94,5.15,8.24Z"/><path class="cls-2" d="M19.11,140.32a7.38,7.38,0,0,0-2.86-3.21A8.18,8.18,0,0,0,11.9,136a8.82,8.82,0,0,0-4.47,1.14,8.06,8.06,0,0,0-3.13,3.26,10.27,10.27,0,0,0-1.14,4.92,10.09,10.09,0,0,0,1.14,4.89,8,8,0,0,0,3.13,3.25,8.82,8.82,0,0,0,4.47,1.14,8,8,0,0,0,5.71-2.08,8.53,8.53,0,0,0,2.62-5.61H10.78v-2.51H23.53v2.38a11.76,11.76,0,0,1-1.84,5.35,11.39,11.39,0,0,1-9.79,5.26,12,12,0,0,1-6-1.55,11.45,11.45,0,0,1-4.3-4.3,13.07,13.07,0,0,1,0-12.46,11.36,11.36,0,0,1,4.3-4.32,12,12,0,0,1,6-1.55,12.12,12.12,0,0,1,6.68,1.87,10.71,10.71,0,0,1,4.23,5.27Z"/><path class="cls-2" d="M39.2,154.64h8.3v2.51H36.11v-23.7H39.2Z"/><path class="cls-2" d="M64,155.84a11.34,11.34,0,0,1-4.3-4.31,13.11,13.11,0,0,1,0-12.48,11.29,11.29,0,0,1,4.3-4.32,12.52,12.52,0,0,1,12.07,0,11.29,11.29,0,0,1,4.29,4.3,13.32,13.32,0,0,1,0,12.51,11.29,11.29,0,0,1-4.29,4.3,12.52,12.52,0,0,1-12.07,0Zm10.49-2.29a8.11,8.11,0,0,0,3.13-3.3,11.4,11.4,0,0,0,0-9.94A8.23,8.23,0,0,0,74.53,137a9.34,9.34,0,0,0-9,0,8.23,8.23,0,0,0-3.11,3.29,11.4,11.4,0,0,0,0,9.94,8.11,8.11,0,0,0,3.13,3.3,9.26,9.26,0,0,0,8.94,0Z"/><path class="cls-2" d="M108.75,146a6.27,6.27,0,0,1,1.7,2.11,6.12,6.12,0,0,1-.29,5.93,6.27,6.27,0,0,1-2.67,2.28,9.46,9.46,0,0,1-4.13.83H94.52v-23.7H103a9.62,9.62,0,0,1,4.11.8,5.84,5.84,0,0,1,2.55,2.16,5.64,5.64,0,0,1,.85,3.06A5.34,5.34,0,0,1,109.4,143a6.41,6.41,0,0,1-3,2A4.93,4.93,0,0,1,108.75,146Zm-11.14-2.31h5.21a5,5,0,0,0,3.36-1,3.95,3.95,0,0,0,0-5.65,5.13,5.13,0,0,0-3.43-1H97.61Zm9.08,9.82a3.73,3.73,0,0,0,1.29-3,3.82,3.82,0,0,0-1.36-3.11,5.46,5.46,0,0,0-3.63-1.14H97.61v8.36h5.48A5.4,5.4,0,0,0,106.69,153.51Z"/><path class="cls-2" d="M137.87,151.88H127.53l-1.9,5.27h-3.26l8.56-23.56h3.57L143,157.15h-3.27Zm-.88-2.51-4.29-12-4.28,12Z"/><path class="cls-2" d="M158.37,154.64h8.3v2.51H155.28v-23.7h3.09Z"/><path class="cls-2" d="M210.63,133.45V136h-6.46v21.18h-3.1V136h-6.49v-2.52Z"/><path class="cls-2" d="M241.19,133.45v23.7H238.1V146.41H226v10.74h-3.09v-23.7H226v10.41H238.1V133.45Z"/><path class="cls-2" d="M258.06,133.45v23.7H255v-23.7Z"/><path class="cls-2" d="M290.46,157.15h-3.09l-12.45-18.87v18.87h-3.09V133.42h3.09l12.45,18.84V133.42h3.09Z"/><path class="cls-2" d="M322.18,140.32a7.38,7.38,0,0,0-2.86-3.21A8.16,8.16,0,0,0,315,136a8.85,8.85,0,0,0-4.47,1.14,8.13,8.13,0,0,0-3.13,3.26,10.27,10.27,0,0,0-1.14,4.92,10.09,10.09,0,0,0,1.14,4.89,8.1,8.1,0,0,0,3.13,3.25,8.85,8.85,0,0,0,4.47,1.14,8.09,8.09,0,0,0,5.72-2.08,8.57,8.57,0,0,0,2.61-5.61h-9.45v-2.51H326.6v2.38a11.65,11.65,0,0,1-1.84,5.35,11.39,11.39,0,0,1-9.79,5.26,11.93,11.93,0,0,1-6-1.55,11.41,11.41,0,0,1-4.31-4.3,13.07,13.07,0,0,1,0-12.46,11.32,11.32,0,0,1,4.31-4.32,11.93,11.93,0,0,1,6-1.55,12.1,12.1,0,0,1,6.68,1.87,10.78,10.78,0,0,1,4.24,5.27Z"/><path class="cls-2" d="M342.5,156.56a7,7,0,0,1-2.91-2.31,6,6,0,0,1-1.09-3.42h3.3a4.3,4.3,0,0,0,1.38,2.8,4.91,4.91,0,0,0,3.51,1.14,5.18,5.18,0,0,0,3.49-1.1,3.61,3.61,0,0,0,1.28-2.84,3.22,3.22,0,0,0-.75-2.21,4.76,4.76,0,0,0-1.87-1.29,27.93,27.93,0,0,0-3-1,25.65,25.65,0,0,1-3.76-1.22,6.09,6.09,0,0,1-2.41-1.92,5.64,5.64,0,0,1-1-3.52,6.13,6.13,0,0,1,1-3.43,6.48,6.48,0,0,1,2.77-2.32,9.84,9.84,0,0,1,4.1-.81,8.6,8.6,0,0,1,5.46,1.66,6.22,6.22,0,0,1,2.4,4.42h-3.41a3.63,3.63,0,0,0-1.42-2.39,5.08,5.08,0,0,0-3.33-1,4.83,4.83,0,0,0-3.17,1,3.45,3.45,0,0,0-1.22,2.81,3,3,0,0,0,.73,2.11,4.88,4.88,0,0,0,1.8,1.24c.72.28,1.72.6,3,1a28.17,28.17,0,0,1,3.77,1.27,6.28,6.28,0,0,1,2.45,1.94,5.63,5.63,0,0,1,1,3.55,6.26,6.26,0,0,1-.91,3.27,6.81,6.81,0,0,1-2.73,2.48,9,9,0,0,1-4.25.95A10.17,10.17,0,0,1,342.5,156.56Z"/></g></g></svg>