<?xml version="1.0" standalone="no"?>
<!DOCTYPE svg PUBLIC "-//W3C//DTD SVG 20010904//EN"
 "http://www.w3.org/TR/2001/REC-SVG-20010904/DTD/svg10.dtd">
<svg version="1.0" xmlns="http://www.w3.org/2000/svg"
 width="512.000000pt" height="512.000000pt" viewBox="0 0 512.000000 512.000000"
 preserveAspectRatio="xMidYMid meet">
<metadata>
Created by potrace 1.14, written by Peter Selinger 2001-2017
</metadata>
<g transform="translate(0.000000,512.000000) scale(0.100000,-0.100000)"
fill="#000000" stroke="none">
<path d="M2120 4434 c-629 -81 -1154 -444 -1453 -1004 -73 -137 -153 -358
-171 -474 -4 -21 -8 -41 -10 -45 -2 -3 -7 -28 -10 -56 -4 -27 -9 -66 -11 -85
-3 -19 -7 -71 -10 -115 l-4 -80 -53 -45 c-182 -155 -291 -283 -351 -409 -88
-188 -45 -356 120 -467 88 -58 217 -99 378 -120 123 -16 557 -9 690 10 17 3
62 8 100 11 39 4 149 23 245 42 96 19 186 37 200 39 14 3 59 14 100 24 41 10
86 21 100 24 46 9 174 45 375 105 632 189 1235 468 1705 789 125 86 238 179
330 273 41 42 88 84 103 94 28 18 158 52 224 59 69 7 245 106 376 212 22 18
22 42 -3 99 -19 43 -22 47 -48 40 -15 -3 -37 -16 -49 -27 -18 -17 -20 -25 -12
-45 5 -14 8 -27 6 -29 -17 -17 -172 -83 -207 -88 -25 -3 -59 -8 -77 -11 -18
-2 -34 -1 -37 3 -3 5 8 28 25 53 16 24 29 49 29 55 0 17 -65 84 -81 84 -8 -1
-34 -19 -59 -40 l-45 -40 -6 27 c-3 16 -2 40 2 54 4 15 5 44 3 64 -2 20 3 47
10 58 8 12 22 48 32 80 18 57 19 58 49 53 38 -7 61 14 71 62 6 28 3 33 -22 43
-16 6 -47 13 -69 16 l-40 5 -61 -98 c-62 -101 -122 -246 -130 -319 -2 -22 -6
-62 -9 -90 -7 -71 -16 -107 -29 -127 -22 -31 -128 -148 -135 -148 -3 0 -17 42
-30 93 -28 111 -78 242 -137 359 -24 48 -44 89 -44 91 0 2 24 0 53 -4 28 -5
66 -11 82 -13 52 -9 159 -45 193 -66 42 -26 48 -25 60 8 6 15 21 57 35 94 l25
67 -51 25 c-127 59 -274 90 -482 101 -27 1 -53 3 -56 4 -3 0 -37 38 -75 83
-132 157 -359 336 -555 440 -191 102 -428 174 -664 204 -90 11 -338 10 -435
-2z m385 -178 c597 -64 1103 -411 1368 -941 69 -140 157 -413 157 -491 0 -29
-121 -114 -365 -257 -178 -105 -147 -97 -390 -98 -156 0 -217 -4 -220 -12 -4
-12 -13 -120 -14 -170 -1 -25 -9 -32 -76 -62 -42 -19 -86 -37 -99 -41 -23 -5
-23 -5 -15 48 13 79 23 193 20 225 -1 9 -124 11 -518 10 l-518 -2 2 -37 c6
-135 51 -369 93 -485 20 -53 17 -61 -17 -68 -10 -2 -38 -8 -63 -14 -76 -18
-74 -19 -103 77 -31 100 -65 259 -73 338 -3 30 -7 62 -9 72 -2 9 -4 40 -4 68
l-1 52 -352 -2 -353 -1 1 -30 c6 -186 104 -472 221 -645 26 -40 28 -47 11 -47
-7 0 -38 -3 -68 -7 -30 -3 -102 -8 -160 -12 l-106 -5 -43 88 c-92 185 -150
390 -168 588 -28 323 31 635 172 918 45 89 133 236 155 257 3 3 23 28 44 55
92 118 271 279 407 367 150 97 410 205 564 234 11 2 31 6 45 9 53 10 85 14
164 21 44 3 82 7 83 8 4 3 176 -3 228 -8z m-2031 -1981 c16 -131 74 -334 130
-461 21 -47 31 -81 24 -83 -9 -3 -93 9 -186 25 -100 18 -230 106 -233 157 -5
73 9 114 72 207 32 48 178 204 185 197 1 -1 5 -20 8 -42z"/>
<path d="M2060 3920 c-170 -35 -346 -108 -487 -203 -40 -27 -73 -50 -73 -53 0
-23 353 -213 363 -196 3 4 21 39 42 77 62 114 124 215 187 303 33 46 59 85 57
86 -2 2 -42 -4 -89 -14z"/>
<path d="M2571 3911 c119 -165 168 -242 229 -358 24 -46 46 -83 50 -83 16 0
219 109 278 149 l64 43 -54 39 c-65 47 -189 114 -283 152 -71 29 -244 77 -279
77 -16 0 -17 -2 -5 -19z"/>
<path d="M2283 3807 c-33 -45 -79 -109 -101 -142 -41 -63 -142 -239 -142 -248
0 -7 88 -25 150 -32 57 -6 257 -7 290 -1 14 2 48 7 77 10 28 3 58 8 67 11 9 3
23 7 31 10 13 4 9 17 -21 72 -93 170 -257 404 -283 403 -3 0 -34 -37 -68 -83z"/>
<path d="M1317 3500 c-182 -199 -325 -498 -352 -740 -3 -30 -8 -67 -11 -82 -2
-16 -1 -29 3 -29 5 -1 164 -2 356 -3 l347 -1 1 40 c1 22 3 49 4 60 1 11 6 49
9 85 4 36 9 72 11 80 2 8 7 29 10 45 8 48 30 133 60 230 15 50 28 96 29 103 0
8 -34 30 -79 50 -108 50 -199 102 -273 156 -34 26 -66 46 -70 46 -4 0 -24 -18
-45 -40z"/>
<path d="M3306 3531 c-13 -20 -187 -128 -285 -175 l-107 -51 29 -85 c50 -151
46 -132 82 -319 4 -22 15 -106 20 -161 2 -14 3 -41 4 -60 l1 -35 340 0 c221 0
340 3 341 10 4 32 -11 140 -30 220 -53 219 -151 412 -299 588 -61 73 -84 89
-96 68z"/>
<path d="M1931 3151 c-52 -165 -76 -270 -86 -392 -4 -40 -8 -79 -10 -86 -2 -7
1 -16 8 -20 7 -4 241 -8 521 -8 l508 0 -6 85 c-10 141 -28 228 -83 403 l-37
119 -31 -7 c-151 -32 -214 -38 -365 -39 -165 0 -210 4 -326 28 l-62 13 -31
-96z"/>
<path d="M4556 3413 c1 -27 -3 -58 -7 -70 -11 -28 -6 -29 31 -2 l29 22 -18 45
c-24 61 -36 63 -35 5z"/>
<path d="M4136 2410 c-106 -70 -94 -59 -100 -98 -4 -18 -8 -47 -12 -64 -10
-62 -24 -116 -50 -199 -25 -81 -90 -243 -105 -264 -4 -5 -19 -32 -34 -60 -48
-87 -117 -187 -192 -276 -69 -82 -135 -146 -260 -249 -49 -41 -198 -133 -280
-173 -195 -95 -369 -146 -588 -172 -56 -6 -293 -7 -335 0 -19 3 -59 8 -89 11
-85 8 -272 60 -384 106 -182 74 -361 186 -507 317 -69 61 -70 62 -117 56 -26
-3 -78 -6 -115 -6 l-68 -1 29 -36 c43 -54 155 -160 246 -232 236 -187 507
-311 804 -370 141 -27 213 -34 371 -33 306 1 550 58 825 192 380 187 676 481
862 858 68 139 72 149 112 274 38 121 68 269 77 379 3 47 8 88 11 93 10 17
-17 3 -101 -53z"/>
<path d="M3530 2061 c-137 -67 -182 -88 -392 -179 -24 -11 -83 -34 -131 -53
-68 -26 -92 -40 -103 -61 -14 -28 -14 -28 28 -45 69 -27 221 -107 286 -152 34
-22 64 -41 67 -41 22 0 183 189 242 285 57 92 152 301 141 310 -2 1 -64 -27
-138 -64z"/>
<path d="M2430 1624 c-41 -13 -124 -38 -185 -56 -60 -17 -113 -34 -117 -37
-12 -11 138 -231 213 -313 15 -17 17 -17 37 7 70 80 262 370 262 395 0 9 -28
17 -90 24 -32 3 -67 -2 -120 -20z"/>
<path d="M2816 1572 c-4 -7 -28 -50 -74 -132 -14 -25 -59 -94 -99 -153 l-75
-109 34 7 c179 36 374 113 495 196 l45 31 -58 37 c-101 62 -260 136 -268 123z"/>
<path d="M1894 1475 c-23 -7 -105 -25 -183 -41 -77 -15 -141 -31 -141 -35 0
-20 196 -119 320 -161 74 -26 250 -70 250 -62 0 2 -139 213 -195 296 -9 13
-16 13 -51 3z"/>
</g>
</svg>
